# xmcd
#
# Track frame offsets:
#	150
#	67009
#	135265
#	173328
#	215709
#	251221
#
# Disc length: 3588 seconds
#
# Revision: 1
# Processed by: cddbd v1.5.2PL0 Copyright (c) Steve Scherf et al.
# Submitted via: audiograbber 1.83.01
#
DISCID=530e0206
DTITLE=Grateful Dead - 73-02-19 Assembly Hall, University of Illinois, Champaig
DTITLE=n-Urbana IL
DYEAR=1900
DGENRE=
TTITLE0=Truckin'
TTITLE1=Eyes Of The World
TTITLE2=Stella Blue
TTITLE3=Sugar Magnolia
TTITLE4=Casey Jones
TTITLE5=Johnny B Goode
EXTD=
EXTT0=
EXTT1=
EXTT2=
EXTT3=
EXTT4=
EXTT5=
PLAYORDER=
